<svg width="152" height="57" viewBox="0 0 152 57" fill="none" xmlns="http://www.w3.org/2000/svg">
<rect width="152" height="57" rx="8" fill="#403D39"/>
<path d="M10.2344 34.2969C9.21354 32.6927 8.66667 30.7135 8.59375 28.3594C8.58333 28.1615 8.57812 27.9688 8.57812 27.7812C8.57812 24.3542 9.65104 21.4844 11.7969 19.1719C13.4531 17.3906 15.4479 16.25 17.7812 15.75C18.5938 15.5938 19.4583 15.5156 20.375 15.5156C24.0208 15.526 26.7969 16.1458 28.7031 17.375L28.0156 23.5625C26.4323 18.6875 23.7083 16.2552 19.8438 16.2656C17.7396 16.2969 16.2708 17.3021 15.4375 19.2812C14.8125 20.8021 14.5 22.7917 14.5 25.25C14.5 25.5729 14.5052 25.9062 14.5156 26.25C14.6198 29.3438 15.4219 32.0417 16.9219 34.3438C18.4219 36.6458 20.2917 37.7969 22.5312 37.7969C23.4167 37.7865 23.8594 37.3385 23.8594 36.4531L23.8125 28.4219L29.6719 28.3906L29.7031 38.9375L25.9844 36.6719C24.2865 38.2865 22.1979 39.0938 19.7188 39.0938C17.7396 39.0938 15.9219 38.6927 14.2656 37.8906C12.6094 37.0885 11.2656 35.8906 10.2344 34.2969ZM36.7113 30.3906C36.7946 29.3281 36.9352 28.2917 37.1331 27.2812C37.331 26.2604 37.6331 25.2812 38.0394 24.3438C38.456 23.3958 39.0238 22.6198 39.7425 22.0156C40.4613 21.4115 41.3467 21.1094 42.3988 21.1094C42.5133 21.1094 42.6279 21.1146 42.7425 21.125C44.0238 21.1979 44.9977 21.599 45.6644 22.3281C46.3415 23.0573 46.68 23.9323 46.68 24.9531C46.68 25.6823 46.5081 26.3854 46.1644 27.0625C45.8206 27.7292 45.3258 28.2708 44.68 28.6875C44.0446 29.1042 43.305 29.3125 42.4613 29.3125C42.1071 29.3125 41.7425 29.276 41.3675 29.2031C41.5029 28.7552 41.5706 28.3021 41.5706 27.8438C41.5706 27.0625 41.3883 26.401 41.0238 25.8594C40.6592 25.3073 40.2373 25.0312 39.7581 25.0312C39.1644 25.0312 38.6383 25.4896 38.18 26.4062C37.7217 27.3125 37.4456 28.724 37.3519 30.6406C37.279 31.526 37.2425 32.5156 37.2425 33.6094C37.2425 34.7656 37.279 35.9271 37.3519 37.0938C37.4352 38.25 37.4769 38.8281 37.4769 38.8281L31.4769 38.8594V23C31.6644 23.0104 31.8519 23.0156 32.0394 23.0156C33.1435 23.0156 34.18 22.8333 35.1488 22.4688C36.1279 22.0938 36.8988 21.6719 37.4613 21.2031C37.4717 21.2031 37.4769 21.224 37.4769 21.2656C37.4769 21.4531 37.3519 22.3177 37.1019 23.8594C36.5602 27.1406 36.2633 29.3229 36.2113 30.4062L36.7113 30.3906ZM55.8913 21.1875C57.5267 21.1875 59.0423 21.5885 60.4381 22.3906C61.8131 23.1927 62.8965 24.2656 63.6881 25.6094C64.511 26.9531 64.9225 28.4375 64.9225 30.0625C64.9225 31.6979 64.511 33.1823 63.6881 34.5156C62.8965 35.8594 61.8131 36.9323 60.4381 37.7344C59.0527 38.5469 57.5371 38.9531 55.8913 38.9531C54.2558 38.9531 52.7402 38.5469 51.3444 37.7344C50.0006 36.9427 48.9225 35.8698 48.11 34.5156C47.2871 33.1823 46.8756 31.6979 46.8756 30.0625C46.8756 28.4375 47.2871 26.9531 48.11 25.6094C48.9225 24.2552 50.0006 23.1823 51.3444 22.3906C52.7506 21.5885 54.2663 21.1875 55.8913 21.1875ZM56.235 22.0156C56.1725 21.9844 56.1048 21.9635 56.0319 21.9531C55.9798 21.9427 55.9225 21.9375 55.86 21.9375C55.3913 21.9375 54.9538 22.2396 54.5475 22.8438C54.0788 23.5104 53.709 24.4375 53.4381 25.625C53.1465 26.8125 52.9902 28.1667 52.9694 29.6875L52.9538 30.1406C52.9538 31.474 53.0683 32.7188 53.2975 33.875C53.5371 35.1667 53.8652 36.1927 54.2819 36.9531C54.7402 37.7865 55.2298 38.2344 55.7506 38.2969C55.8131 38.3073 55.8756 38.3125 55.9381 38.3125C56.3965 38.3125 56.834 38.0156 57.2506 37.4219C57.6881 36.776 58.0527 35.8542 58.3444 34.6562C58.6465 33.4271 58.8079 32.0677 58.8288 30.5781V30.3281C58.8288 28.8906 58.7142 27.5833 58.485 26.4062C58.2558 25.1562 57.9277 24.1198 57.5006 23.2969C57.1048 22.5885 56.6829 22.1615 56.235 22.0156Z" fill="#FFFCF2"/>
<path d="M66.3213 30.5156C66.3213 28.7969 66.6806 27.2448 67.3994 25.8594C68.1285 24.4635 69.1546 23.3646 70.4775 22.5625C71.8004 21.7604 73.3369 21.3594 75.0869 21.3594H75.1494C76.5869 21.3698 77.8317 21.5781 78.8838 21.9844C79.9463 22.3906 80.7483 22.9219 81.29 23.5781C81.8421 24.2344 82.1181 24.9323 82.1181 25.6719C82.1181 26.5052 81.764 27.2812 81.0556 28C80.3473 28.7188 79.316 29.2656 77.9619 29.6406C78.014 29.2656 78.04 28.8646 78.04 28.4375C78.04 27.4688 77.8994 26.5 77.6181 25.5312C77.3369 24.5625 76.9358 23.7708 76.415 23.1562C75.9046 22.5312 75.3213 22.2188 74.665 22.2188H74.5088C73.5817 22.3021 72.8629 22.8125 72.3525 23.75C71.8525 24.6875 71.6025 25.8229 71.6025 27.1562C71.6025 28.5729 71.8733 29.8854 72.415 31.0938C72.9879 32.3229 73.8473 33.3177 74.9931 34.0781C76.1494 34.8385 77.3629 35.2188 78.6338 35.2188C79.3733 35.2188 80.0817 35.0729 80.7588 34.7812C81.4358 34.4792 82.04 34.0208 82.5713 33.4062C82.29 34.6562 81.7588 35.6979 80.9775 36.5312C80.1963 37.3542 79.2952 37.9688 78.2744 38.375C77.264 38.7708 76.2431 39 75.2119 39.0625C73.6285 39.0417 72.1598 38.6771 70.8056 37.9688C69.4515 37.25 68.3629 36.25 67.54 34.9688C66.7275 33.6771 66.3213 32.2031 66.3213 30.5469V30.5156ZM82.9388 30.2812C82.9388 28.9792 83.2565 27.6458 83.8919 26.2812C84.5273 24.9062 85.47 23.7448 86.72 22.7969C87.97 21.8385 89.4648 21.3229 91.2044 21.25C91.3502 21.2396 91.496 21.2344 91.6419 21.2344C92.8502 21.2344 93.996 21.4323 95.0794 21.8281C96.1627 22.224 97.0638 22.8542 97.7825 23.7188C98.5117 24.5729 98.9231 25.6562 99.0169 26.9688C99.0273 27.0833 99.0325 27.1927 99.0325 27.2969C99.0325 28.2552 98.7565 29.1146 98.2044 29.875C97.6627 30.6354 96.9492 31.2292 96.0638 31.6562C95.1888 32.0833 94.2773 32.2969 93.3294 32.2969C92.1315 32.2969 91.0638 31.9427 90.1263 31.2344C89.1992 30.5156 88.5794 29.4375 88.2669 28C88.2669 28 88.2096 28.0156 88.095 28.0469C87.9804 28.0677 87.9231 28.1042 87.9231 28.1562V28.4844C87.9231 29.7656 88.22 30.849 88.8138 31.7344C89.4179 32.6198 90.2096 33.2812 91.1888 33.7188C92.1783 34.1458 93.2356 34.3594 94.3606 34.3594C95.2981 34.3594 96.2044 34.2135 97.0794 33.9219C97.9648 33.6198 98.7304 33.1979 99.3763 32.6562C99.2825 33.8229 98.845 34.8906 98.0638 35.8594C97.2929 36.8281 96.3033 37.5938 95.095 38.1562C93.8867 38.7188 92.621 39 91.2981 39C90.3919 39 89.5221 38.8646 88.6888 38.5938C86.9283 38.0312 85.5325 37.0104 84.5013 35.5312C83.47 34.0417 82.9492 32.3021 82.9388 30.3125V30.2812ZM91.1419 22.0469C90.7356 22.0469 90.3554 22.2344 90.0013 22.6094C89.6575 22.9844 89.3815 23.4948 89.1731 24.1406C88.9752 24.7865 88.8763 25.4948 88.8763 26.2656C88.8763 27.0365 88.9752 27.7448 89.1731 28.3906C89.3815 29.0365 89.6575 29.5469 90.0013 29.9219C90.3554 30.2969 90.7356 30.4844 91.1419 30.4844C91.5585 30.4844 91.9388 30.2969 92.2825 29.9219C92.6263 29.5469 92.8971 29.0365 93.095 28.3906C93.3033 27.7448 93.4075 27.0365 93.4075 26.2656C93.4075 25.4948 93.3033 24.7865 93.095 24.1406C92.8971 23.4948 92.6263 22.9844 92.2825 22.6094C91.9388 22.2344 91.5585 22.0469 91.1419 22.0469ZM105.994 30.3906C106.077 29.3281 106.218 28.2917 106.416 27.2812C106.614 26.2604 106.916 25.2812 107.322 24.3438C107.739 23.3958 108.306 22.6198 109.025 22.0156C109.744 21.4115 110.629 21.1094 111.681 21.1094C111.796 21.1094 111.91 21.1146 112.025 21.125C113.306 21.1979 114.28 21.599 114.947 22.3281C115.624 23.0573 115.963 23.9323 115.963 24.9531C115.963 25.6823 115.791 26.3854 115.447 27.0625C115.103 27.7292 114.608 28.2708 113.963 28.6875C113.327 29.1042 112.588 29.3125 111.744 29.3125C111.39 29.3125 111.025 29.276 110.65 29.2031C110.785 28.7552 110.853 28.3021 110.853 27.8438C110.853 27.0625 110.671 26.401 110.306 25.8594C109.942 25.3073 109.52 25.0312 109.041 25.0312C108.447 25.0312 107.921 25.4896 107.463 26.4062C107.004 27.3125 106.728 28.724 106.634 30.6406C106.561 31.526 106.525 32.5156 106.525 33.6094C106.525 34.7656 106.561 35.9271 106.634 37.0938C106.718 38.25 106.759 38.8281 106.759 38.8281L100.759 38.8594V23C100.947 23.0104 101.134 23.0156 101.322 23.0156C102.426 23.0156 103.463 22.8333 104.431 22.4688C105.41 22.0938 106.181 21.6719 106.744 21.2031C106.754 21.2031 106.759 21.224 106.759 21.2656C106.759 21.4531 106.634 22.3177 106.384 23.8594C105.843 27.1406 105.546 29.3229 105.494 30.4062L105.994 30.3906ZM117.502 17.4219C118.846 17.4219 120.049 17.2344 121.111 16.8594C122.174 16.474 122.835 16.0625 123.096 15.625V38.9844H117.111V17.4219H117.502ZM137.416 36.8594C137.375 36.7969 137.296 36.75 137.182 36.7188C137.078 36.6875 137.02 36.7031 137.01 36.7656C136.698 37.4635 136.25 37.9948 135.666 38.3594C135.093 38.7135 134.432 38.8854 133.682 38.875C131.224 38.8229 129.619 37.4479 128.869 34.75L124.291 21.125H130.916C131.291 22.1354 131.833 23.6771 132.541 25.75C133.114 27.4271 133.599 28.8229 133.994 29.9375C134.39 31.0417 134.812 32.1302 135.26 33.2031C135.718 34.3906 136.166 35.1198 136.604 35.3906C136.906 35.5781 137.224 35.5729 137.557 35.375C137.901 35.1771 138.161 34.8438 138.338 34.375C138.796 33.1875 139.177 32.125 139.479 31.1875C139.791 30.2396 140.01 29.3802 140.135 28.6094C140.26 27.8281 140.255 27.2031 140.119 26.7344C139.932 26.0781 139.599 25.599 139.119 25.2969C138.651 24.9948 138.13 24.8802 137.557 24.9531C136.984 25.026 136.458 25.2708 135.979 25.6875C135.5 26.0938 135.161 26.625 134.963 27.2812C134.932 27.3542 134.89 27.3906 134.838 27.3906C134.817 27.3906 134.802 27.375 134.791 27.3438C134.156 26.5208 133.796 25.6927 133.713 24.8594C133.64 24.0156 133.807 23.2604 134.213 22.5938C134.63 21.9167 135.229 21.401 136.01 21.0469C136.791 20.6823 137.666 20.5469 138.635 20.6406C139.864 20.7656 140.791 21.1562 141.416 21.8125C142.041 22.4688 142.375 23.2969 142.416 24.2969C142.468 25.2969 142.27 26.3646 141.823 27.5L137.729 39.0156C137.177 40.5156 136.546 41.7708 135.838 42.7812C135.13 43.8021 134.296 44.5625 133.338 45.0625C132.38 45.5625 131.286 45.75 130.057 45.625C128.849 45.5 127.927 45.026 127.291 44.2031C126.656 43.3802 126.364 42.5104 126.416 41.5938C126.479 40.6875 126.838 39.9688 127.494 39.4375C127.651 39.9479 128.156 40.3906 129.01 40.7656C129.875 41.1406 130.869 41.3281 131.994 41.3281C133.13 41.3281 134.14 41.0729 135.026 40.5625C135.651 40.2083 136.151 39.7396 136.526 39.1562C136.901 38.5833 137.198 37.8177 137.416 36.8594Z" fill="#EB5E28"/>
</svg>
